<svg xmlns="http://www.w3.org/2000/svg" xmlns:xlink="http://www.w3.org/1999/xlink" width="572" height="265"><g><text style="font-family: sans-serif; fill: rgb(59, 59, 59); font-size: 0.85rem; font-weight: bold; text-anchor: middle;" transform="translate(286, 20)"><tspan x="0" dy="0em">Producto Interior Bruto per cápita en Italia</tspan></text></g><g transform="translate(10, 27)"><svg><svg xmlns="http://www.w3.org/2000/svg" xmlns:xlink="http://www.w3.org/1999/xlink" width="552" height="194"><g class="x axis" transform="translate(0, 164)" fill="none" font-size="10" font-family="sans-serif" text-anchor="middle"><path class="domain" stroke="#999" d="M0,0.5H542.5" transform="translate(0, 0)"/><g class="tick" opacity="1" transform="translate(59.305511443320675,0)"><line stroke="#999" y2="6" stroke-width="0.5"/><text fill="currentColor" y="9" dy="0.71em">1960</text></g><g class="tick" opacity="1" transform="translate(139.84986931633085,0)"><line stroke="#999" y2="6" stroke-width="0.5"/><text fill="currentColor" y="9" dy="0.71em">1970</text></g><g class="tick" opacity="1" transform="translate(220.37217836430048,0)"><line stroke="#999" y2="6" stroke-width="0.5"/><text fill="currentColor" y="9" dy="0.71em">1980</text></g><g class="tick" opacity="1" transform="translate(300.91653623731065,0)"><line stroke="#999" y2="6" stroke-width="0.5"/><text fill="currentColor" y="9" dy="0.71em">1990</text></g><g class="tick" opacity="1" transform="translate(381.4388452852803,0)"><line stroke="#999" y2="6" stroke-width="0.5"/><text fill="currentColor" y="9" dy="0.71em">2000</text></g><g class="tick" opacity="1" transform="translate(461.98320315829045,0)"><line stroke="#999" y2="6" stroke-width="0.5"/><text fill="currentColor" y="9" dy="0.71em">2010</text></g></g><g class="y axis" transform="translate(542, 0)" fill="none" font-size="10" font-family="sans-serif" text-anchor="end"><g class="tick" opacity="1" transform="translate(0,164.5)"><line stroke="currentColor" x2="-542" class="grid-line" style="stroke: rgb(153, 153, 153); stroke-width: 0.5px; stroke-opacity: 0.5; stroke-dasharray: 2px, 2px;"/><text fill="currentColor" x="-542" dy="-4" style="fill: rgb(43, 41, 41); font-family: Roboto; shape-rendering: crispedges;" transform="translate(48.79999923706055, 0)">0 USD</text></g><g class="tick" opacity="1" transform="translate(0,135.70000000000002)"><line stroke="currentColor" x2="-542" class="grid-line" style="stroke: rgb(153, 153, 153); stroke-width: 0.5px; stroke-opacity: 0.5; stroke-dasharray: 2px, 2px;"/><text fill="currentColor" x="-542" dy="-4" style="fill: rgb(43, 41, 41); font-family: Roboto; shape-rendering: crispedges;" transform="translate(48.79999923706055, 0)">10 mil USD</text></g><g class="tick" opacity="1" transform="translate(0,106.89999999999999)"><line stroke="currentColor" x2="-542" class="grid-line" style="stroke: rgb(153, 153, 153); stroke-width: 0.5px; stroke-opacity: 0.5; stroke-dasharray: 2px, 2px;"/><text fill="currentColor" x="-542" dy="-4" style="fill: rgb(43, 41, 41); font-family: Roboto; shape-rendering: crispedges;" transform="translate(48.79999923706055, 0)">20 mil USD</text></g><g class="tick" opacity="1" transform="translate(0,78.10000000000001)"><line stroke="currentColor" x2="-542" class="grid-line" style="stroke: rgb(153, 153, 153); stroke-width: 0.5px; stroke-opacity: 0.5; stroke-dasharray: 2px, 2px;"/><text fill="currentColor" x="-542" dy="-4" style="fill: rgb(43, 41, 41); font-family: Roboto; shape-rendering: crispedges;" transform="translate(48.79999923706055, 0)">30 mil USD</text></g><g class="tick" opacity="1" transform="translate(0,49.29999999999999)"><line stroke="currentColor" x2="-542" class="grid-line" style="stroke: rgb(153, 153, 153); stroke-width: 0.5px; stroke-opacity: 0.5; stroke-dasharray: 2px, 2px;"/><text fill="currentColor" x="-542" dy="-4" style="fill: rgb(43, 41, 41); font-family: Roboto; shape-rendering: crispedges;" transform="translate(48.79999923706055, 0)">40 mil USD</text></g><g class="tick" opacity="1" transform="translate(0,20.5)"><line stroke="currentColor" x2="-542" class="grid-line" style="stroke: rgb(153, 153, 153); stroke-width: 0.5px; stroke-opacity: 0.5; stroke-dasharray: 2px, 2px;"/><text fill="currentColor" x="-542" dy="-4" style="fill: rgb(43, 41, 41); font-family: Roboto; shape-rendering: crispedges;" transform="translate(48.79999923706055, 0)">50 mil USD</text></g></g><g class="highlight"/><g class="chart-area"><path class="line" style="stroke: rgb(252, 191, 113); fill: none; stroke-width: 2.5px;" d="M542,72.77253795564349L533.9521788602111,67.3276525640166L525.9043577204222,64.32701426708844L517.8565365806335,70.89917827116972L509.78666661580405,74.89362297085819L501.7388454760152,76.93694824986676L493.69102433622635,61.70696395997629L485.6432031964374,61.61607287178924L477.5733332316081,63.04584441653927L469.5255120918192,52.83470084374727L461.47769095203034,60.31850206037485L453.42986981224146,57.21029502909076L445.35999984741215,46.558372918243805L437.3121787076232,55.07072411530101L429.26435756783434,67.51522447816333L421.2165364280455,71.71575573897374L413.14666646321615,73.972016493159L405.09884532342727,84.8988551396795L397.0510241836384,99.86198492452678L389.00320304384957,105.00833793440749L380.93333307902014,106.14773508066732L372.8855119392313,100.64684197126986L364.83769079944244,99.72376457395261L356.78986965965356,101.13148403084807L348.7199996948242,97.52497853378185L340.6721785550354,104.48608946190349L332.6243574152465,108.30762300904168L324.5765362754576,110.03235997688998L316.50666631062825,97.05879336016467L308.45884517083937,100.76519426028837L300.41102403105054,104.02174143824759L292.36320289126166,116.80641282919059L284.2933329264323,118.65537556099673L276.2455117866434,123.00398152242349L268.1976906468546,131.4127562908382L260.1498695070657,140.98682269132598L252.07999954223635,141.70961998318032L244.03217840244744,141.44218288604912L235.98435726265862,142.23721250163575L227.93653612286977,142.046240014076L219.86666615804035,139.64407335361778L211.8188450182515,143.8679768766619L203.77102387846267,147.8417654740687L195.72320273867376,150.74163286034164L187.6533327738444,152.38467385919594L179.60551163405555,152.1718576609836L171.5576904942667,153.57110003126118L163.50986935447781,154.76887412369283L155.43999938964845,156.30712453432267L147.39217824985957,157.35984391828333L139.34435711007072,157.9322317973616L131.29653597028187,158.77744219781965L123.22666600545247,159.242414594823L115.17884486566362,159.58296451284184L107.13102372587474,159.96096601929827L99.08320258608589,160.24317300813541L91.01333262125651,160.47907172346686L82.96551148146764,160.75706430944504L74.91769034167879,161.14805076176933L66.86986920188993,161.44447017553912L58.79999923706055,161.68306124476302"/></g></svg></svg></g><g transform="translate(10, 251)"><text style="fill: rgb(59, 59, 59); font-family: sans-serif; font-size: 0.7rem;"><tspan x="0" dy="0em">Datos de datacatalog.worldbank.org obtenidos a través de Data Commons</tspan></text></g></svg>